<svg id="visual" viewBox="0 0 900 600" width="900" height="600" xmlns="http://www.w3.org/2000/svg" xmlns:xlink="http://www.w3.org/1999/xlink" version="1.1"><path d="M0 121L13.7 127C27.3 133 54.7 145 82 156C109.3 167 136.7 177 163.8 173C191 169 218 151 245.2 137C272.3 123 299.7 113 327 117C354.3 121 381.7 139 409 145C436.3 151 463.7 145 491 163C518.3 181 545.7 223 573 235C600.3 247 627.7 229 654.8 209C682 189 709 167 736.2 154C763.3 141 790.7 137 818 139C845.3 141 872.7 149 886.3 153L900 157L900 0L886.3 0C872.7 0 845.3 0 818 0C790.7 0 763.3 0 736.2 0C709 0 682 0 654.8 0C627.7 0 600.3 0 573 0C545.7 0 518.3 0 491 0C463.7 0 436.3 0 409 0C381.7 0 354.3 0 327 0C299.7 0 272.3 0 245.2 0C218 0 191 0 163.8 0C136.7 0 109.3 0 82 0C54.7 0 27.3 0 13.7 0L0 0Z" fill="#4d40c4"></path><path d="M0 187L13.7 202C27.3 217 54.7 247 82 263C109.3 279 136.7 281 163.8 270C191 259 218 235 245.2 212C272.3 189 299.7 167 327 165C354.3 163 381.7 181 409 196C436.3 211 463.7 223 491 243C518.3 263 545.7 291 573 301C600.3 311 627.7 303 654.8 289C682 275 709 255 736.2 239C763.3 223 790.7 211 818 209C845.3 207 872.7 215 886.3 219L900 223L900 155L886.3 151C872.7 147 845.3 139 818 137C790.7 135 763.3 139 736.2 152C709 165 682 187 654.8 207C627.7 227 600.3 245 573 233C545.7 221 518.3 179 491 161C463.7 143 436.3 149 409 143C381.7 137 354.3 119 327 115C299.7 111 272.3 121 245.2 135C218 149 191 167 163.8 171C136.7 175 109.3 165 82 154C54.7 143 27.3 131 13.7 125L0 119Z" fill="#7870ff"></path><path d="M0 457L13.7 455C27.3 453 54.7 449 82 443C109.3 437 136.7 429 163.8 432C191 435 218 449 245.2 447C272.3 445 299.7 427 327 409C354.3 391 381.7 373 409 379C436.3 385 463.7 415 491 423C518.3 431 545.7 417 573 419C600.3 421 627.7 439 654.8 442C682 445 709 433 736.2 430C763.3 427 790.7 433 818 427C845.3 421 872.7 403 886.3 394L900 385L900 221L886.3 217C872.7 213 845.3 205 818 207C790.7 209 763.3 221 736.2 237C709 253 682 273 654.8 287C627.7 301 600.3 309 573 299C545.7 289 518.3 261 491 241C463.7 221 436.3 209 409 194C381.7 179 354.3 161 327 163C299.7 165 272.3 187 245.2 210C218 233 191 257 163.8 268C136.7 279 109.3 277 82 261C54.7 245 27.3 215 13.7 200L0 185Z" fill="#9a94ff"></path><path d="M0 529L13.7 528C27.3 527 54.7 525 82 521C109.3 517 136.7 511 163.8 513C191 515 218 525 245.2 516C272.3 507 299.7 479 327 461C354.3 443 381.7 435 409 451C436.3 467 463.7 507 491 514C518.3 521 545.7 495 573 488C600.3 481 627.7 493 654.8 502C682 511 709 517 736.2 522C763.3 527 790.7 531 818 516C845.3 501 872.7 467 886.3 450L900 433L900 383L886.3 392C872.7 401 845.3 419 818 425C790.7 431 763.3 425 736.2 428C709 431 682 443 654.8 440C627.7 437 600.3 419 573 417C545.7 415 518.3 429 491 421C463.7 413 436.3 383 409 377C381.7 371 354.3 389 327 407C299.7 425 272.3 443 245.2 445C218 447 191 433 163.8 430C136.7 427 109.3 435 82 441C54.7 447 27.3 451 13.7 453L0 455Z" fill="#7870ff"></path><path d="M0 601L13.7 601C27.3 601 54.7 601 82 601C109.3 601 136.7 601 163.8 601C191 601 218 601 245.2 601C272.3 601 299.7 601 327 601C354.3 601 381.7 601 409 601C436.3 601 463.7 601 491 601C518.3 601 545.7 601 573 601C600.3 601 627.7 601 654.8 601C682 601 709 601 736.2 601C763.3 601 790.7 601 818 601C845.3 601 872.7 601 886.3 601L900 601L900 431L886.3 448C872.7 465 845.3 499 818 514C790.7 529 763.3 525 736.2 520C709 515 682 509 654.8 500C627.7 491 600.3 479 573 486C545.7 493 518.3 519 491 512C463.7 505 436.3 465 409 449C381.7 433 354.3 441 327 459C299.7 477 272.3 505 245.2 514C218 523 191 513 163.8 511C136.7 509 109.3 515 82 519C54.7 523 27.3 525 13.7 526L0 527Z" fill="#4d40c4"></path></svg>